name analog
datacolumns 19
datarows 57
range 0.65 0.678
endheader
time	ground_force_vx	ground_force_vy	ground_force_vz	ground_force_px	ground_force_py	ground_force_pz	l_ground_force_vx	l_ground_force_vy	l_ground_force_vz	l_ground_force_px	l_ground_force_py	l_ground_force_pz	ground_torque_x	ground_torque_y	ground_torque_z	l_ground_torque_x	l_ground_torque_y	l_ground_torque_z
0.65	-0.0	-0.0	-0.0	21.62966537475586	31.84765625	-520.2340087890625	15.615363121032717	-22.19025993347168	-356.4412841796875	-0.0	-0.0	-0.0	-0.0	-0.0	-0.0	82755.6953125	-44922.62890625	2207.8349609375
0.6505	-0.0	-0.0	-0.0	22.62912368774414	31.65139961242676	-514.06982421875	15.623839378356934	-21.55049133300781	-348.548828125	-0.0	-0.0	-0.0	-0.0	-0.0	-0.0	80874.171875	-44405.9609375	2441.680908203125
0.651	-0.0	-0.0	-0.0	23.045101165771484	31.09786796569824	-511.005859375	16.37940788269043	-20.610898971557617	-338.5928649902344	-0.0	-0.0	-0.0	-0.0	-0.0	-0.0	79291.046875	-43982.4296875	2651.14111328125
0.6515	-0.0	-0.0	-0.0	22.86785888671875	30.92824935913086	-503.4396362304688	17.032470703125	-20.09129905700684	-332.44903564453125	-0.0	-0.0	-0.0	-0.0	-0.0	-0.0	77724.1640625	-43557.0234375	2817.994384765625
0.652	-0.0	-0.0	-0.0	22.58986091613769	31.185705184936523	-500.9655151367188	17.830867767333984	-19.727310180664062	-323.8462829589844	-0.0	-0.0	-0.0	-0.0	-0.0	-0.0	75978.6875	-43077.5546875	3084.275146484375
0.6525	-0.0	-0.0	-0.0	22.173961639404297	31.116365432739254	-495.70843505859375	18.54055404663086	-19.7840576171875	-316.9883728027344	-0.0	-0.0	-0.0	-0.0	-0.0	-0.0	74516.8359375	-42649.8046875	3330.533203125
0.653	-0.0	-0.0	-0.0	21.8653507232666	31.00758934020996	-488.6070556640625	19.07281875610352	-19.274887084960938	-311.54620361328125	-0.0	-0.0	-0.0	-0.0	-0.0	-0.0	73215.0546875	-42105.3359375	3831.843505859375
0.6535	-0.0	-0.0	-0.0	22.28312110900879	31.652467727661133	-482.7583923339844	19.537134170532227	-19.087820053100582	-308.1374816894531	-0.0	-0.0	-0.0	-0.0	-0.0	-0.0	72138.421875	-41662.9765625	3954.36376953125
0.654	-0.0	-0.0	-0.0	21.91461181640625	31.255779266357425	-475.8482666015625	19.662891387939453	-19.74701499938965	-303.883544921875	-0.0	-0.0	-0.0	-0.0	-0.0	-0.0	71131.203125	-41417.609375	4072.942138671875
0.6545	-0.0	-0.0	-0.0	22.372621536254883	31.790756225585938	-472.0114135742188	18.85445213317871	-20.195091247558597	-298.444091796875	-0.0	-0.0	-0.0	-0.0	-0.0	-0.0	70309.265625	-40785.76171875	4009.50244140625
0.655	-0.0	-0.0	-0.0	22.433237075805664	31.364347457885746	-465.3018798828125	17.090608596801758	-19.743471145629883	-293.0585632324219	-0.0	-0.0	-0.0	-0.0	-0.0	-0.0	69201.4765625	-40399.1484375	3949.04931640625
0.6555	-0.0	-0.0	-0.0	21.945785522460938	31.256351470947266	-460.9526672363281	16.588916778564453	-19.400569915771484	-289.1771240234375	-0.0	-0.0	-0.0	-0.0	-0.0	-0.0	68050.1640625	-40394.7265625	3744.539306640625
0.656	-0.0	-0.0	-0.0	22.66890525817871	30.618867874145508	-452.8140258789063	17.012338638305664	-18.61583137512207	-284.0509338378906	-0.0	-0.0	-0.0	-0.0	-0.0	-0.0	66801.4140625	-39986.58984375	3873.7939453125
0.6565	-0.0	-0.0	-0.0	23.776775360107425	30.85781478881836	-449.1708068847656	18.36313247680664	-17.70294761657715	-280.3687744140625	-0.0	-0.0	-0.0	-0.0	-0.0	-0.0	66410.671875	-40112.4140625	4171.54638671875
0.657	-0.0	-0.0	-0.0	25.621997833251957	31.022968292236328	-445.5070495605469	20.07840156555176	-17.15416145324707	-276.87725830078125	-0.0	-0.0	-0.0	-0.0	-0.0	-0.0	65908.3046875	-40134.71484375	4752.85107421875
0.6575	-0.0	-0.0	-0.0	26.701679229736328	30.54725646972656	-443.8739929199219	21.44843101501465	-16.653640747070312	-276.4114685058594	-0.0	-0.0	-0.0	-0.0	-0.0	-0.0	65858.234375	-40524.28125	5146.20556640625
0.658	-0.0	-0.0	-0.0	27.77196311950684	30.663293838500977	-441.6466979980469	22.739896774291992	-16.888948440551758	-273.73486328125	-0.0	-0.0	-0.0	-0.0	-0.0	-0.0	65062.32421875	-40608.8046875	5440.40185546875
0.6585	-0.0	-0.0	-0.0	28.716684341430664	31.186548233032227	-437.4169006347656	23.271419525146484	-17.311050415039062	-272.53424072265625	-0.0	-0.0	-0.0	-0.0	-0.0	-0.0	64395.484375	-40392.48046875	5717.41162109375
0.659	-0.0	-0.0	-0.0	29.21577262878418	31.240875244140625	-436.8836059570313	23.38090133666992	-17.192272186279297	-270.3256530761719	-0.0	-0.0	-0.0	-0.0	-0.0	-0.0	64108.86328125	-40030.6796875	5859.31640625
0.6595	-0.0	-0.0	-0.0	29.45688247680664	31.38286781311035	-436.81256103515625	23.01677131652832	-18.234766006469727	-265.780029296875	-0.0	-0.0	-0.0	-0.0	-0.0	-0.0	63267.75	-39586.33203125	5894.8544921875
0.66	-0.0	-0.0	-0.0	28.966686248779297	31.9978141784668	-432.36279296875	23.153514862060547	-18.036624908447266	-263.6470642089844	-0.0	-0.0	-0.0	-0.0	-0.0	-0.0	62566.6015625	-39113.72265625	6020.92236328125
0.6605	-0.0	-0.0	-0.0	27.48566627502441	32.7470588684082	-429.7850646972656	22.6721134185791	-18.59465789794922	-262.94842529296875	-0.0	-0.0	-0.0	-0.0	-0.0	-0.0	62434.23828125	-39310.90234375	5822.38916015625
0.661	-0.0	-0.0	-0.0	26.40631103515625	32.50627136230469	-423.6714172363281	20.454524993896484	-19.812183380126957	-262.4508361816406	-0.0	-0.0	-0.0	-0.0	-0.0	-0.0	62142.98828125	-38806.25390625	5689.265625
0.6615	-0.0	-0.0	-0.0	24.872257232666016	32.37869644165039	-422.97119140625	17.802753448486328	-20.081361770629883	-260.944091796875	-0.0	-0.0	-0.0	-0.0	-0.0	-0.0	61673.79296875	-38463.40234375	5192.5
0.662	-0.0	-0.0	-0.0	24.23062896728516	32.67362594604492	-415.12353515625	16.313493728637695	-19.00766372680664	-256.6996154785156	-0.0	-0.0	-0.0	-0.0	-0.0	-0.0	61111.1640625	-38219.1953125	4832.69189453125
0.6625	-0.0	-0.0	-0.0	22.71975517272949	32.63893508911133	-413.1864318847656	16.56117820739746	-18.64508056640625	-256.51727294921875	-0.0	-0.0	-0.0	-0.0	-0.0	-0.0	61024.96875	-38215.0390625	4815.70849609375
0.663	-0.0	-0.0	-0.0	23.4329833984375	32.60464859008789	-407.7198181152344	17.62590217590332	-18.78509521484375	-257.74615478515625	-0.0	-0.0	-0.0	-0.0	-0.0	-0.0	61356.83984375	-38801.84765625	5062.931640625
0.6635	-0.0	-0.0	-0.0	24.426746368408203	32.90604019165039	-406.4095764160156	18.47914695739746	-18.848766326904297	-262.212890625	-0.0	-0.0	-0.0	-0.0	-0.0	-0.0	62228.58984375	-39178.6953125	5357.01220703125
0.664	-0.0	-0.0	-0.0	25.132158279418945	33.682899475097656	-405.8703002929688	19.011219024658203	-19.272123336791992	-265.5686340332031	-0.0	-0.0	-0.0	-0.0	-0.0	-0.0	62789.25	-39549.61328125	5638.7490234375
0.6645	-0.0	-0.0	-0.0	24.622100830078125	34.10369110107422	-405.80377197265625	18.958097457885746	-19.713571548461918	-270.24334716796875	-0.0	-0.0	-0.0	-0.0	-0.0	-0.0	64005.234375	-40272.87109375	5813.64208984375
0.665	-0.0	-0.0	-0.0	23.74654769897461	34.33174514770508	-403.2987060546875	18.931047439575195	-20.15509033203125	-272.37335205078125	-0.0	-0.0	-0.0	-0.0	-0.0	-0.0	64499.88671875	-40611.03125	5795.8125
0.6655	-0.0	-0.0	-0.0	22.78983688354492	34.84999084472656	-404.037841796875	17.82200050354004	-20.640789031982425	-276.9470520019531	-0.0	-0.0	-0.0	-0.0	-0.0	-0.0	65401.3828125	-41113.22265625	5812.6884765625
0.666	-0.0	-0.0	-0.0	22.7160758972168	35.55488967895508	-402.5605773925781	16.77512550354004	-21.35634994506836	-277.7138977050781	-0.0	-0.0	-0.0	-0.0	-0.0	-0.0	65996.1484375	-41130.0859375	5559.55859375
0.6665	-0.0	-0.0	-0.0	21.02125740051269	35.749393463134766	-402.1112976074219	15.906743049621582	-21.806751251220703	-278.3082580566406	-0.0	-0.0	-0.0	-0.0	-0.0	-0.0	65883.0	-41381.91796875	5265.07958984375
0.667	-0.0	-0.0	-0.0	18.750288009643555	36.01671600341797	-401.0184020996094	14.388503074645996	-21.585050582885746	-276.2814025878906	-0.0	-0.0	-0.0	-0.0	-0.0	-0.0	66067.4921875	-41419.71484375	5166.29296875
0.6675	-0.0	-0.0	-0.0	17.49321937561035	36.11372375488281	-400.1844177246094	13.775964736938477	-21.71857452392578	-276.1112670898437	-0.0	-0.0	-0.0	-0.0	-0.0	-0.0	65512.7734375	-41476.23828125	4990.71435546875
0.668	-0.0	-0.0	-0.0	17.411880493164062	36.13735580444336	-399.86236572265625	14.6287260055542	-21.23126602172852	-277.8910217285156	-0.0	-0.0	-0.0	-0.0	-0.0	-0.0	65898.21875	-41708.1875	5100.4423828125
0.6685	-0.0	-0.0	-0.0	18.31165885925293	35.903900146484375	-401.3674926757813	15.579205513000488	-21.61350440979004	-278.97216796875	-0.0	-0.0	-0.0	-0.0	-0.0	-0.0	66499.0625	-41968.390625	5445.4423828125
0.669	-0.0	-0.0	-0.0	19.211336135864254	35.7335319519043	-404.74420166015625	16.41612434387207	-21.861921310424805	-283.47802734375	-0.0	-0.0	-0.0	-0.0	-0.0	-0.0	67625.6953125	-43189.51171875	5790.60986328125
0.6695	-0.0	-0.0	-0.0	20.134153366088867	35.725860595703125	-406.8938598632813	16.195539474487305	-22.21543312072754	-287.8984069824219	-0.0	-0.0	-0.0	-0.0	-0.0	-0.0	68603.734375	-43925.984375	5920.205078125
0.67	-0.0	-0.0	-0.0	20.95682716369629	35.547760009765625	-408.9521179199219	16.960325241088867	-23.07431030273437	-293.0686340332031	-0.0	-0.0	-0.0	-0.0	-0.0	-0.0	70123.6875	-44696.375	6149.4267578125
0.6705	-0.0	-0.0	-0.0	21.387788772583008	36.11880111694336	-411.3346557617188	16.838613510131836	-23.22860336303711	-298.27252197265625	-0.0	-0.0	-0.0	-0.0	-0.0	-0.0	70749.828125	-45419.9609375	6235.52392578125
0.671	-0.0	-0.0	-0.0	21.247167587280277	35.97857666015625	-413.7228393554688	16.25859260559082	-24.28032684326172	-303.1279296875	-0.0	-0.0	-0.0	-0.0	-0.0	-0.0	72041.0703125	-46138.1171875	6234.84423828125
0.6715	-0.0	-0.0	-0.0	21.48482894897461	35.64471435546875	-414.57421875	15.951754570007324	-25.139450073242188	-307.2215576171875	-0.0	-0.0	-0.0	-0.0	-0.0	-0.0	73297.203125	-46450.265625	6285.6171875
0.672	-0.0	-0.0	-0.0	21.113340377807617	35.43643951416016	-414.309326171875	15.24219799041748	-26.151212692260746	-310.4590148925781	-0.0	-0.0	-0.0	-0.0	-0.0	-0.0	73787.453125	-46573.4375	6147.3388671875
0.6725	-0.0	-0.0	-0.0	20.16157531738281	35.84502029418945	-416.1038208007813	14.339353561401367	-27.61303329467773	-315.6643371582031	-0.0	-0.0	-0.0	-0.0	-0.0	-0.0	74562.390625	-46643.19921875	5844.3427734375
0.673	-0.0	-0.0	-0.0	19.84311294555664	35.206512451171875	-415.25335693359375	11.47530460357666	-28.62409400939941	-317.0607604980469	-0.0	-0.0	-0.0	-0.0	-0.0	-0.0	74421.2734375	-46224.73046875	5372.724609375
0.6735	-0.0	-0.0	-0.0	16.957212448120117	35.12458801269531	-413.7840576171875	8.177107810974121	-28.5591983795166	-313.7945556640625	-0.0	-0.0	-0.0	-0.0	-0.0	-0.0	73832.9453125	-45487.51953125	5001.27392578125
0.674	-0.0	-0.0	-0.0	15.46909523010254	35.021121978759766	-409.0106201171875	7.050196647644043	-28.865703582763672	-309.1952819824219	-0.0	-0.0	-0.0	-0.0	-0.0	-0.0	72545.921875	-44812.08203125	4641.9326171875
0.6745	-0.0	-0.0	-0.0	14.830154418945312	34.678794860839844	-408.5452270507813	7.231850147247314	-28.351261138916016	-306.11492919921875	-0.0	-0.0	-0.0	-0.0	-0.0	-0.0	71330.1796875	-44431.3125	4813.83251953125
0.675	-0.0	-0.0	-0.0	14.53428840637207	35.13141632080078	-406.8354797363281	8.92475414276123	-28.116832733154297	-302.5765686035156	-0.0	-0.0	-0.0	-0.0	-0.0	-0.0	71231.390625	-44485.12109375	5154.16162109375
0.6755	-0.0	-0.0	-0.0	14.376781463623049	35.131256103515625	-409.2255859375	10.47546100616455	-28.25538444519043	-305.4778137207031	-0.0	-0.0	-0.0	-0.0	-0.0	-0.0	71757.8359375	-44965.109375	5641.515625
0.676	-0.0	-0.0	-0.0	13.292366027832031	34.87067031860352	-411.0195007324219	11.35498046875	-28.3587703704834	-309.2889404296875	-0.0	-0.0	-0.0	-0.0	-0.0	-0.0	72371.6484375	-45535.52734375	5755.6962890625
0.6765	-0.0	-0.0	-0.0	12.963366508483888	34.84999084472656	-412.3791809082031	11.539864540100098	-27.84362030029297	-312.2002868652344	-0.0	-0.0	-0.0	-0.0	-0.0	-0.0	73456.296875	-46111.2421875	5857.42822265625
0.677	-0.0	-0.0	-0.0	11.487895011901855	35.1038818359375	-411.5081176757813	11.251473426818848	-28.32179832458496	-315.31304931640625	-0.0	-0.0	-0.0	-0.0	-0.0	-0.0	74447.6953125	-46766.2890625	5913.84814453125
0.6775	-0.0	-0.0	-0.0	10.609341621398926	35.09727096557617	-413.6268615722656	10.844776153564451	-28.21169090270996	-321.452880859375	-0.0	-0.0	-0.0	-0.0	-0.0	-0.0	75650.859375	-47533.8125	5933.35498046875
0.678	-0.0	-0.0	-0.0	9.998205184936523	35.137245178222656	-413.4425354003906	10.187192916870115	-28.527904510498047	-326.3995361328125	-0.0	-0.0	-0.0	-0.0	-0.0	-0.0	76881.9453125	-48053.4765625	5927.94287109375
